<svg version="1.2" xmlns="http://www.w3.org/2000/svg" viewBox="0 0 438 438" width="438" height="438"><style>.a{fill:#fff}</style><path fill-rule="evenodd" class="a" d="m437.7 132.8v218.5c0 17.6-14.3 31.9-31.8 31.9h-374c-17.6 0-31.9-14.3-31.9-31.9v-218.5c0-17.6 14.3-31.9 31.9-31.9h3.4c3.8-7.1 11.3-12 20-12h61.6v-10.3c0-13.3 10.7-24 24-24h156c13.2 0 24 10.7 24 24v10.3h61.5c8.7 0 16.2 4.9 20.1 12h3.4c17.5 0 31.8 14.3 31.8 31.9zm-306.8-43.9h176v-10.3c0-5.5-4.5-10-10-10h-156c-5.5 0-10 4.5-10 10zm-84.4 189c0 23.1 18.8 41.9 41.9 41.9h82.7l-4.4-25.4h104.4l-4.4 25.4h82.6c23.1 0 41.9-18.8 41.9-41.9v-166.2c0-4.9-3.9-8.8-8.8-8.8h-327.1c-4.8 0-8.8 3.9-8.8 8.8 0 0 0 166.2 0 166.2zm377.2-145.1c0-9.9-8-17.9-17.8-17.9h-0.7v163c0 30.9-25 55.9-55.9 55.9h-85.1l-3.3 19.4h-84l-3.4-19.4h-85.1c-30.8 0-55.9-25-55.9-55.9v-163h-0.6c-9.9 0-17.9 8-17.9 17.9v218.5c0 9.8 8 17.9 17.9 17.9h374c9.8 0 17.8-8.1 17.8-17.9zm-240.4 175.6l5.4 30.8h60.4l5.3-30.8z"/></svg>